<?xml version="1.0" encoding="UTF-8"?>
<svg version="1.1" xmlns="http://www.w3.org/2000/svg" width="1024" height="1024">
<path d="M0 0 C337.92 0 675.84 0 1024 0 C1024 337.92 1024 675.84 1024 1024 C686.08 1024 348.16 1024 0 1024 C0 686.08 0 348.16 0 0 Z " fill="#7FA8FE" transform="translate(0,0)"/>
<path d="M0 0 C0.33 0 0.66 0 1 0 C1.10022461 1.13614746 1.20044922 2.27229492 1.30371094 3.44287109 C4.18202987 35.84320373 4.18202987 35.84320373 9 68 C9.17080078 68.97437012 9.34160156 69.94874023 9.51757812 70.95263672 C11.91761049 84.46942415 15.11228289 97.73681129 18.625 111 C18.91593033 112.09924805 18.91593033 112.09924805 19.21273804 113.22070312 C21.07962983 120.24082444 22.97554392 127.23057587 25.35205078 134.09912109 C26.38802318 137.13833778 27.25216298 140.22320678 28.125 143.3125 C28.45757813 144.48425781 28.79015625 145.65601563 29.1328125 146.86328125 C29.6353627 148.6810642 30.10643518 150.50936835 30.4921875 152.35546875 C30.65976562 152.89816406 30.82734375 153.44085937 31 154 C31.66 154.33 32.32 154.66 33 155 C33.4440498 156.87867224 33.88525137 158.75806073 34.3125 160.640625 C35.05553039 163.19057022 36.08248702 165.33510017 37.3125 167.6875 C39.28005573 171.45052203 40.89672933 175.20641464 42.375 179.1875 C46.49319438 190.13932319 51.62736545 200.5072326 57.25390625 210.7578125 C59.0621827 214.11546229 60.75650465 217.51452081 62.4375 220.9375 C68.42495619 233.89514532 68.42495619 233.89514532 77 245 C78 247 79 249 80 251 C80.79365459 252.13837325 81.60730415 253.26299456 82.4375 254.375 C84.2438068 256.81378218 85.61667795 259.17783233 86.875 261.9375 C88.77765454 265.95248938 91.40807398 268.86986873 94.3984375 272.12109375 C96.45378415 274.53236628 97.66509818 277.13949611 99 280 C100.32869858 281.67036393 101.66104368 283.33784732 103 285 C103 285.66 103 286.32 103 287 C103.99 287.33 104.98 287.66 106 288 C107.18359375 289.57421875 107.18359375 289.57421875 108.4375 291.6875 C111.80912562 297.00660403 115.85685161 301.61304533 120.03686523 306.30151367 C124 310.79681405 124 310.79681405 124 313 C124.66 313 125.32 313 126 313 C131 318.47619048 131 318.47619048 131 321 C131.99 321.33 132.98 321.66 134 322 C135.40454102 323.42358398 135.40454102 323.42358398 136.94140625 325.30859375 C141.46613721 330.63872444 146.39305035 335.54322241 151.3425293 340.47290039 C152.93458966 342.05959946 154.5212299 343.65157742 156.10742188 345.24414062 C165.57275154 354.86041125 165.57275154 354.86041125 176.1875 363.125 C179.22416938 365.14944626 181.44915189 367.38982984 184 370 C204.65963327 389.16373027 228.92882888 404.51674421 253 419 C253.93561768 419.57331055 253.93561768 419.57331055 254.89013672 420.15820312 C265.1526412 426.44370696 275.62289518 431.83406397 286.55908203 436.84619141 C289.29129636 438.1376942 291.97662177 439.50825036 294.66796875 440.8828125 C300.87360336 444.00261738 307.21131762 446.72542962 313.63623047 449.35986328 C315.50108532 450.12544556 317.36197068 450.90012903 319.22265625 451.67578125 C326.7267229 454.77130821 334.26797903 457.53270837 342 460 C343.56324821 460.5185833 345.12589198 461.03899832 346.6875 461.5625 C347.40292969 461.80097656 348.11835938 462.03945313 348.85546875 462.28515625 C351.0703125 463.0234375 353.28515625 463.76171875 355.5 464.5 C356.20318359 464.73380371 356.90636719 464.96760742 357.63085938 465.20849609 C359.10978154 465.70258777 360.58746859 466.20041083 362.06323242 466.70385742 C388.51920886 475.68004708 417.72416664 483.15378134 445.6796875 484.7890625 C448 485 448 485 451 486 C453.62827308 486.20435817 456.24310525 486.37196188 458.875 486.5 C466.40149285 486.87015539 466.40149285 486.87015539 469.33930969 487.50750732 C472.42214784 488.07813939 475.31815395 488.14218352 478.45385742 488.16113281 C479.74519089 488.17074036 481.03652435 488.1803479 482.36698914 488.19024658 C483.77981383 488.19510865 485.19264064 488.19938396 486.60546875 488.203125 C487.33072565 488.20595238 488.05598255 488.20877975 488.80321693 488.21169281 C492.67439762 488.22670551 496.54554114 488.23591011 500.41674805 488.24023438 C503.54545254 488.24454158 506.67386911 488.25811879 509.80249023 488.28125 C532.04830997 488.4425143 553.87598049 487.31100892 576 485 C577.74923321 484.82999064 579.49863382 484.66168271 581.24829102 484.49609375 C593.65963757 483.28856339 605.81720172 480.58664918 618 478 C619.6694165 477.65146973 619.6694165 477.65146973 621.37255859 477.29589844 C645.57252976 472.22649085 671.28321464 466.67023746 693.74609375 455.98828125 C696.71157074 454.68799411 699.74974423 453.67480203 702.8125 452.625 C708.3632445 450.67601927 713.48739358 448.36525407 718.69921875 445.65234375 C722.59489536 443.70220031 726.5662317 441.98135914 730.5625 440.25 C770.79426647 422.62392694 808.30220264 397.50498033 841.55517578 368.94262695 C843.72524905 367.08279802 845.90741187 365.2398221 848.10620117 363.4140625 C857.07679833 355.91802735 865.42179182 347.88784151 873.66088867 339.59985352 C875.82052554 337.42943439 877.99073903 335.27000183 880.16210938 333.11132812 C887.57268494 325.70779 894.52348551 318.24082165 901 310 C901.98249125 308.84713454 902.97351808 307.70143476 903.9765625 306.56640625 C942.2436886 263.23576495 970.66921719 210.84935194 991 157 C991.26498291 156.31776367 991.52996582 155.63552734 991.80297852 154.93261719 C1010.31793437 106.93610537 1020.25083345 55.2861759 1023 4 C1023.33 4 1023.66 4 1024 4 C1024 164.38 1024 324.76 1024 490 C686.08 490 348.16 490 0 490 C0 328.3 0 166.6 0 0 Z " fill="#2D2929" transform="translate(0,534)"/>
<path d="M0 0 C160.38 0 320.76 0 486 0 C486 159.72 486 319.44 486 484 C485.67 484 485.34 484 485 484 C484.96559814 483.39567139 484.93119629 482.79134277 484.89575195 482.16870117 C483.3748061 456.80781335 480.4559729 431.12962251 474.56542969 406.37939453 C473.91464494 403.6408159 473.29019929 400.8966598 472.6640625 398.15234375 C454.56185028 319.80504156 418.73712913 243.6570311 365.4375 182.9375 C363 180 363 180 363 178 C362.34 178 361.68 178 361 178 C359.58829235 176.40324822 358.24600532 174.74486398 356.9375 173.0625 C353.31055539 168.52154207 349.53436039 164.37671616 345.3359375 160.36328125 C343.36866941 158.37298494 341.56039706 156.34596924 339.7421875 154.22265625 C335.99535453 149.90451903 331.94121996 146.00718772 327.75 142.125 C327.00347168 141.42882568 326.25694336 140.73265137 325.48779297 140.01538086 C323.32928437 138.00579118 321.1653597 136.00220188 319 134 C318.17000488 133.22825439 318.17000488 133.22825439 317.32324219 132.44091797 C310.76661857 126.34708952 304.00891008 120.56565765 297 115 C296.36739258 114.49484863 295.73478516 113.98969727 295.08300781 113.46923828 C271.21717251 94.4608024 245.94510686 77.34519191 219 63 C218.12263184 62.52852539 217.24526367 62.05705078 216.34130859 61.57128906 C148.68319408 25.28075617 76.35348105 6.23562601 0 1 C0 0.67 0 0.34 0 0 Z " fill="#2D2929" transform="translate(538,0)"/>
<path d="M0 0 C161.04 0 322.08 0 488 0 C488 0.33 488 0.66 488 1 C487.0112085 1.06469482 486.02241699 1.12938965 485.00366211 1.19604492 C462.74165456 2.68043844 440.95900994 4.93887632 419 9 C417.92041016 9.19319824 416.84082031 9.38639648 415.72851562 9.58544922 C368.24971593 18.12898401 323.03745045 34.39047847 280 56 C279.07751465 56.4626123 278.1550293 56.92522461 277.20458984 57.40185547 C243.82629099 74.25553317 211.75618114 95.07868661 183.72753906 119.90380859 C180.20041575 123 180.20041575 123 178 123 C178 123.66 178 124.32 178 125 C176.44406999 126.36933879 174.82702659 127.66944657 173.1875 128.9375 C168.00710509 133.07249388 163.40949209 137.45299886 158.80078125 142.2265625 C156.64148363 144.36477911 154.47459307 146.33954488 152.171875 148.3125 C147.81587656 152.08520198 143.868091 156.16610333 139.9375 160.375 C139.26912109 161.07882813 138.60074219 161.78265625 137.91210938 162.5078125 C133.77598665 166.91324545 130.01921152 171.45845409 126.44750977 176.33447266 C125.96983154 176.88409668 125.49215332 177.4337207 125 178 C124.34 178 123.68 178 123 178 C122.76796875 178.54527344 122.5359375 179.09054688 122.296875 179.65234375 C120.63362391 182.66322901 118.52556575 184.98060809 116.25 187.5625 C90.88530825 217.03867545 70.41509293 251.37699573 53 286 C52.30825684 287.3614917 52.30825684 287.3614917 51.60253906 288.75048828 C34.27134939 323.03770702 21.2797443 360.49269378 13 398 C12.68023193 399.4240918 12.68023193 399.4240918 12.35400391 400.87695312 C6.29846799 428.20684355 2.59036889 456.06239576 1 484 C0.67 484 0.34 484 0 484 C0 324.28 0 164.56 0 0 Z " fill="#2D2929" transform="translate(0,0)"/>
<path d="M0 0 C35.64 0 71.28 0 108 0 C108 7.26 108 14.52 108 22 C115.26 22 122.52 22 130 22 C130 79.09 130 136.18 130 195 C122.74 195 115.48 195 108 195 C108 202.26 108 209.52 108 217 C72.36 217 36.72 217 0 217 C0 209.74 0 202.48 0 195 C-7.26 195 -14.52 195 -22 195 C-22 137.91 -22 80.82 -22 22 C-14.74 22 -7.48 22 0 22 C0 14.74 0 7.48 0 0 Z " fill="#2D2929" transform="translate(458,612)"/>
<path d="M0 0 C42.9 0 85.8 0 130 0 C130 7.26 130 14.52 130 22 C137.26 22 144.52 22 152 22 C152 50.71 152 79.42 152 109 C144.74 109 137.48 109 130 109 C130 123.19 130 137.38 130 152 C137.26 152 144.52 152 152 152 C152 166.19 152 180.38 152 195 C159.26 195 166.52 195 174 195 C174 202.26 174 209.52 174 217 C152.22 217 130.44 217 108 217 C108 195.55 108 174.1 108 152 C101.07 152 94.14 152 87 152 C87 144.74 87 137.48 87 130 C79.74 130 72.48 130 65 130 C65 158.71 65 187.42 65 217 C43.55 217 22.1 217 0 217 C0 209.74 0 202.48 0 195 C7.26 195 14.52 195 22 195 C22 137.91 22 80.82 22 22 C14.74 22 7.48 22 0 22 C0 14.74 0 7.48 0 0 Z " fill="#2D2929" transform="translate(436,195)"/>
<path d="M0 0 C50.16 0 100.32 0 152 0 C152 21.45 152 42.9 152 65 C144.74 65 137.48 65 130 65 C130 58.07 130 51.14 130 44 C122.74 44 115.48 44 108 44 C108 36.74 108 29.48 108 22 C93.81 22 79.62 22 65 22 C65 43.45 65 64.9 65 87 C72.26 87 79.52 87 87 87 C87 79.74 87 72.48 87 65 C93.93 65 100.86 65 108 65 C108 93.71 108 122.42 108 152 C101.07 152 94.14 152 87 152 C87 144.74 87 137.48 87 130 C79.74 130 72.48 130 65 130 C65 151.45 65 172.9 65 195 C79.19 195 93.38 195 108 195 C108 188.07 108 181.14 108 174 C115.26 174 122.52 174 130 174 C130 166.74 130 159.48 130 152 C137.26 152 144.52 152 152 152 C152 173.45 152 194.9 152 217 C101.84 217 51.68 217 0 217 C0 209.74 0 202.48 0 195 C7.26 195 14.52 195 22 195 C22 137.91 22 80.82 22 22 C14.74 22 7.48 22 0 22 C0 14.74 0 7.48 0 0 Z " fill="#2D2929" transform="translate(241,195)"/>
<path d="M0 0 C35.64 0 71.28 0 108 0 C108 7.26 108 14.52 108 22 C115.26 22 122.52 22 130 22 C130 36.19 130 50.38 130 65 C115.48 65 100.96 65 86 65 C86 50.81 86 36.62 86 22 C64.55 22 43.1 22 21 22 C21 79.09 21 136.18 21 195 C42.45 195 63.9 195 86 195 C86 180.81 86 166.62 86 152 C100.52 152 115.04 152 130 152 C130 166.19 130 180.38 130 195 C122.74 195 115.48 195 108 195 C108 202.26 108 209.52 108 217 C72.36 217 36.72 217 0 217 C0 209.74 0 202.48 0 195 C-7.26 195 -14.52 195 -22 195 C-22 137.91 -22 80.82 -22 22 C-14.74 22 -7.48 22 0 22 C0 14.74 0 7.48 0 0 Z " fill="#2D2929" transform="translate(653,195)"/>
<path d="M0 0 C35.64 0 71.28 0 108 0 C108 7.26 108 14.52 108 22 C115.26 22 122.52 22 130 22 C130 36.19 130 50.38 130 65 C122.74 65 115.48 65 108 65 C108 72.26 108 79.52 108 87 C100.74 87 93.48 87 86 87 C86 94.26 86 101.52 86 109 C79.07 109 72.14 109 65 109 C65 115.93 65 122.86 65 130 C57.74 130 50.48 130 43 130 C43 137.26 43 144.52 43 152 C35.74 152 28.48 152 21 152 C21 166.19 21 180.38 21 195 C42.45 195 63.9 195 86 195 C86 188.07 86 181.14 86 174 C100.52 174 115.04 174 130 174 C130 188.19 130 202.38 130 217 C79.84 217 29.68 217 -22 217 C-22 195.55 -22 174.1 -22 152 C-14.74 152 -7.48 152 0 152 C0 144.74 0 137.48 0 130 C6.93 130 13.86 130 21 130 C21 123.07 21 116.14 21 109 C28.26 109 35.52 109 43 109 C43 101.74 43 94.48 43 87 C50.26 87 57.52 87 65 87 C65 79.74 65 72.48 65 65 C71.93 65 78.86 65 86 65 C86 50.81 86 36.62 86 22 C64.55 22 43.1 22 21 22 C21 29.26 21 36.52 21 44 C6.81 44 -7.38 44 -22 44 C-22 36.74 -22 29.48 -22 22 C-14.74 22 -7.48 22 0 22 C0 14.74 0 7.48 0 0 Z " fill="#2D2929" transform="translate(263,612)"/>
<path d="M0 0 C21.45 0 42.9 0 65 0 C65 42.9 65 85.8 65 130 C72.26 130 79.52 130 87 130 C87 137.26 87 144.52 87 152 C58.29 152 29.58 152 0 152 C0 144.74 0 137.48 0 130 C7.26 130 14.52 130 22 130 C22 94.36 22 58.72 22 22 C14.74 22 7.48 22 0 22 C0 14.74 0 7.48 0 0 Z " fill="#2D2929" transform="translate(674,677)"/>
<path d="M0 0 C21.45 0 42.9 0 65 0 C65 14.19 65 28.38 65 43 C58.07 43 51.14 43 44 43 C44 50.26 44 57.52 44 65 C36.74 65 29.48 65 22 65 C22 72.26 22 79.52 22 87 C14.74 87 7.48 87 0 87 C0 58.29 0 29.58 0 0 Z " fill="#3E7BFE" transform="translate(479,634)"/>
<path d="M0 0 C6.93 0 13.86 0 21 0 C21 28.38 21 56.76 21 86 C-0.45 86 -21.9 86 -44 86 C-44 71.81 -44 57.62 -44 43 C-36.74 43 -29.48 43 -22 43 C-22 35.74 -22 28.48 -22 21 C-14.74 21 -7.48 21 0 21 C0 14.07 0 7.14 0 0 Z " fill="#407DFE" transform="translate(523,721)"/>
<path d="M0 0 C14.19 0 28.38 0 43 0 C43 28.71 43 57.42 43 87 C28.81 87 14.62 87 0 87 C0 58.29 0 29.58 0 0 Z " fill="#BDD2FE" transform="translate(501,217)"/>
<path d="M0 0 C14.19 0 28.38 0 43 0 C43 14.52 43 29.04 43 44 C28.81 44 14.62 44 0 44 C0 29.48 0 14.96 0 0 Z " fill="#2D2929" transform="translate(696,612)"/>
<path d="M0 0 C0 0.33 0 0.66 0 1 C-5.03125029 2.63920259 -9.24154158 3.24532806 -14.58764648 3.22705078 C-15.31043289 3.22734283 -16.0332193 3.22763489 -16.77790833 3.22793579 C-19.14243003 3.22655393 -21.5066278 3.21104739 -23.87109375 3.1953125 C-25.52018563 3.19157829 -27.16927974 3.18873325 -28.81837463 3.18673706 C-33.14039326 3.17913271 -37.46227561 3.15951198 -41.78424072 3.1373291 C-46.20184486 3.11680148 -50.6194712 3.1077206 -55.03710938 3.09765625 C-63.69146851 3.07626283 -72.34571726 3.04216587 -81 3 C-81 2.67 -81 2.34 -81 2 C-80.30668076 1.98969254 -79.61336151 1.97938507 -78.89903259 1.96876526 C-72.29609147 1.86990964 -65.69322017 1.76728831 -59.09039974 1.66066074 C-55.69758196 1.60599767 -52.30475524 1.55268277 -48.91186523 1.50268555 C-29.7937301 1.27818786 -29.7937301 1.27818786 -10.7109375 0.20507812 C-7.12746022 -0.06600625 -3.59134997 -0.07329286 0 0 Z " fill="#37579F" transform="translate(565,1021)"/>
<path d="M0 0 C7.59 0 15.18 0 23 0 C23.66 1.32 24.32 2.64 25 4 C23 7 23 7 20.875 7.6875 C20.25625 7.790625 19.6375 7.89375 19 8 C19.875 3.125 19.875 3.125 21 2 C14.07 1.67 7.14 1.34 0 1 C0 0.67 0 0.34 0 0 Z " fill="#4884F3" transform="translate(489,512)"/>
<path d="M0 0 C0.33 0 0.66 0 1 0 C1 1.98 1 3.96 1 6 C-0.32 6.33 -1.64 6.66 -3 7 C-3.33 6.34 -3.66 5.68 -4 5 C-3.34 4.67 -2.68 4.34 -2 4 C-0.86649466 1.98330173 -0.86649466 1.98330173 0 0 Z " fill="#CDDDFE" transform="translate(512,505)"/>
</svg>
